# xmcd
#
# Track frame offsets:
#	150
#	15571
#	27245
#	40011
#	54113
#	67183
#	80492
#	91693
#	101696
#	118979
#	133129
#	143402
#	160600
#	177045
#	187044
#	208945
#	228761
#
# Disc length: 3272 seconds
#
# Revision: 1
# Processed by: cddbd v1.5.2PL0 Copyright (c) Steve Scherf et al.
# Submitted via: audiograbber 1.83.01
#
DISCID=da0cc611
DTITLE=Mick Flavin - Live In Concert
DYEAR=1900
DGENRE=
TTITLE0=Break Her Heart Or Mine
TTITLE1=The Rarest Flowers
TTITLE2=The Old Side Of Town
TTITLE3=Jennifer Johnson And Me
TTITLE4=The County Of Mayo
TTITLE5=Streets Of Bakersfield
TTITLE6=Travellin' Light
TTITLE7=Cold Grey Ashes
TTITLE8=Carrickfergus
TTITLE9=Wild Flower
TTITLE10=The Girl From Wexford Town
TTITLE11=Westmeath Batchelor - Dan O'Hara - The Jolly Tinker - Irish Washerwoma
TTITLE11=n
TTITLE12=They'll Never Take Her Love Away From Me
TTITLE13=Working Woman
TTITLE14=Kiss An Angel Good Morning - Is Anybody Going To San Antone - Crystal 
TTITLE14=Chandeliers
TTITLE15=Home To Donegal
TTITLE16=Going Home Again
EXTD=
EXTT0=
EXTT1=
EXTT2=
EXTT3=
EXTT4=
EXTT5=
EXTT6=
EXTT7=
EXTT8=
EXTT9=
EXTT10=
EXTT11=
EXTT12=
EXTT13=
EXTT14=
EXTT15=
EXTT16=
PLAYORDER=
